<svg width="732" height="740" viewBox="0 0 732 740" fill="none" xmlns="http://www.w3.org/2000/svg">
<path fill-rule="evenodd" clip-rule="evenodd" d="M731.23 323.097C731.23 241.529 701.029 166.997 651.203 110.182C601.925 53.9814 533.464 15.0213 456.068 3.55347C437.503 26.9079 420.338 54.359 416.311 79.7622C403.923 157.473 594.043 174.031 522.099 248.939C516.503 254.778 512.647 261.88 510.803 269.426C508.995 276.903 509.131 284.824 511.486 292.404C516.434 308.417 524.795 326.411 538.787 338.703C552.301 350.585 571.65 357.277 599.293 351.678C604.617 350.585 610.043 350.073 615.469 350.176C620.861 350.278 626.185 350.927 631.338 352.224C649.221 356.697 677.102 366.36 696.861 386.026C705.699 394.835 712.9 405.454 716.927 418.292C726.244 388.212 731.23 356.254 731.23 323.097Z" fill="black"/>
<path fill-rule="evenodd" clip-rule="evenodd" d="M491.05 264.683C493.712 253.655 499.309 243.275 507.431 234.841C555.379 184.89 381.365 169.764 396.217 76.6164C400.312 50.9063 415.192 24.3424 432.425 0.988846L429.558 0.783981C422.767 0.340117 415.703 0.135254 408.4 0.135254C349.873 0.135254 295.002 15.7043 247.694 42.9509C260.219 59.2034 270.149 77.8116 273.016 97.7851C276.497 122.232 269.569 148.112 244.315 173.242C238.991 181.915 201.896 246.173 258.444 265.702C259.399 266.009 260.628 266.419 262.163 266.863C263.29 267.204 264.62 267.545 266.122 267.921C285.847 272.872 295.607 284.686 297.519 299.811C299.566 316.268 290.966 336.242 275.268 354.099C260.389 371 238.855 386.5 214.011 395.344C176.097 408.831 130.64 407.09 89.2822 372.058C94.7083 407.738 105.935 441.506 122.01 472.306C141.871 510.376 169.104 544.007 201.831 571.321L259.709 536.256L164.186 484.494C162.377 483.674 160.808 482.309 159.715 480.499C156.781 475.651 158.35 469.369 163.162 466.432L163.196 466.466L202.34 442.736C204.592 441.063 207.561 440.312 210.53 440.927V440.961L363.897 473.124L442.114 425.733C442.558 425.391 443.07 425.084 443.582 424.845H443.616L450.578 420.645C479.073 403.369 511.869 399.306 541.794 406.646C549.2 408.456 556.469 410.983 563.431 414.192L563.704 414.329C584.76 424.06 603.256 439.97 616.19 461.344L616.224 461.31C619.159 466.158 617.589 472.441 612.777 475.377C612.504 475.548 612.231 475.685 611.924 475.821L431.667 585.046L414.467 646.06C501.25 644.49 579.671 608.674 636.798 551.52C659.424 528.884 678.706 502.9 693.823 474.39C706.62 439.189 698.021 415.869 682.63 400.538C666.249 384.217 642.19 375.955 626.628 372.097C622.874 371.175 619.052 370.663 615.298 370.594C611.34 370.526 607.381 370.902 603.456 371.687C568.476 378.755 543.428 369.775 525.511 354.069C508.072 338.773 497.971 317.297 492.136 298.415C488.586 287.285 488.388 275.643 491.05 264.683Z" fill="black"/>
<path fill-rule="evenodd" clip-rule="evenodd" d="M256.365 286.43C255.034 286.054 253.499 285.542 251.758 284.928C171.083 257.067 221.317 171.569 227.153 162.111C227.631 161.121 228.314 160.234 229.133 159.414L229.167 159.448C249.711 139.304 255.444 119.227 252.782 100.585C250.393 83.8881 241.452 67.841 230.259 53.6714C212.206 65.6558 195.415 79.4155 180.127 94.6777C121.702 153.165 85.5645 233.918 85.5645 323.099C85.5645 327.299 85.5986 330.748 85.701 333.411C85.7692 335.528 85.8716 337.815 86.0081 340.24C125.151 384.968 170.471 389.134 207.19 376.057C228.587 368.443 247.118 355.127 259.916 340.581C271.86 326.992 278.549 312.857 277.218 302.272C276.399 295.649 271.417 290.322 261.179 287.727C259.678 287.386 258.072 286.942 256.365 286.43Z" fill="black"/>
<path fill-rule="evenodd" clip-rule="evenodd" d="M546.168 429.219C543.097 428.16 539.991 427.204 536.852 426.453C512.315 420.41 485.525 423.619 462.115 437.413C469.179 446.7 479.041 452.914 489.791 455.577C502.146 458.616 515.625 456.943 527.331 449.841C532.859 446.495 537.467 442.261 541.152 437.447C543.097 434.852 544.769 432.121 546.168 429.219Z" fill="black"/>
<path fill-rule="evenodd" clip-rule="evenodd" d="M537.869 467.258C521.317 477.296 502.309 479.653 484.904 475.385C469.104 471.492 454.635 462.103 444.601 448.002L371.434 492.354C371.092 492.593 370.717 492.798 370.376 493.003L286.05 544.082C285.674 544.355 285.265 544.594 284.855 544.799L206.842 592.053C206.399 592.36 205.955 592.633 205.511 592.872L166.505 616.534C163.229 618.992 158.656 619.299 154.971 617.046L155.005 617.012L67.1956 562.484L0.717163 602.842L145.784 705.887C152.371 710.564 160.015 713.057 167.762 713.33C175.508 713.603 183.358 711.691 190.251 707.491L331.806 621.723C332.045 621.586 332.25 621.45 332.489 621.313L416.986 570.098C417.361 569.824 417.771 569.585 418.18 569.381L593.012 463.469C585.095 452.953 575.437 444.417 564.653 437.929C562.64 442.095 560.217 446.056 557.384 449.778C552.163 456.572 545.615 462.546 537.869 467.258ZM443.918 496.861C446.818 501.675 445.283 507.923 440.471 510.86C435.659 513.762 429.414 512.226 426.479 507.411L420.404 497.408C417.504 492.593 419.039 486.345 423.851 483.408C428.663 480.506 434.908 482.043 437.843 486.857L443.918 496.861ZM384.879 507.036C389.691 504.134 395.936 505.67 398.871 510.484L404.946 520.488C407.846 525.302 406.311 531.55 401.499 534.487C396.687 537.389 390.442 535.853 387.507 531.039L381.432 521.035C378.532 516.221 380.067 509.973 384.879 507.036ZM359.83 534.112L365.905 544.116C368.805 548.93 367.27 555.178 362.458 558.115C357.646 561.017 351.401 559.481 348.466 554.666L342.391 544.663C339.49 539.848 341.026 533.6 345.838 530.664C350.65 527.761 356.929 529.298 359.83 534.112ZM306.832 554.325C311.644 551.423 317.889 552.959 320.824 557.773L326.898 567.777C329.799 572.591 328.264 578.84 323.452 581.776C318.64 584.679 312.395 583.142 309.46 578.328L303.385 568.324C300.484 563.51 302.02 557.228 306.832 554.325ZM287.857 591.405C290.758 596.219 289.222 602.467 284.411 605.404C279.599 608.306 273.354 606.77 270.418 601.956L264.344 591.952C261.443 587.138 262.979 580.89 267.791 577.953C272.603 575.05 278.847 576.587 281.783 581.401L287.857 591.405ZM228.785 601.614C233.597 598.712 239.841 600.248 242.777 605.063L248.851 615.066C251.752 619.881 250.216 626.129 245.405 629.066C240.593 631.968 234.348 630.431 231.412 625.617L225.338 615.613C222.437 610.799 223.973 604.517 228.785 601.614ZM189.779 625.241C194.59 622.339 200.835 623.875 203.771 628.69L209.845 638.693C212.746 643.508 211.21 649.756 206.398 652.693C201.587 655.595 195.342 654.058 192.406 649.244L186.332 639.24C183.431 634.426 184.967 628.178 189.779 625.241Z" fill="black"/>
<path fill-rule="evenodd" clip-rule="evenodd" d="M338.234 488.63L210.194 461.793L188.899 474.665L279.914 523.968L338.234 488.63Z" fill="black"/>
<path fill-rule="evenodd" clip-rule="evenodd" d="M370.445 726.509L405.97 600.555L347.614 635.893L349.15 739.419L370.445 726.509Z" fill="black"/>
</svg>
