<svg width="364" height="258" viewBox="0 0 364 258" fill="none" xmlns="http://www.w3.org/2000/svg">
<path d="M39.2942 103.868C37.7135 94.9741 28.166 86.1722 24.6094 83.502L19.4652 79.6449L25.308 76.9464C30.1065 74.7283 34.7145 73.598 38.9908 73.598C40.8396 73.598 42.4626 73.8099 43.8528 74.1278C44.756 28.1685 62.0659 16.9647 62.0659 16.9647C62.0659 16.9647 57.6484 44.4301 60.5981 80.9589C64.3804 78.6842 68.939 77.5045 74.1327 77.5045C79.5804 77.5045 83.8355 78.8396 84.0119 78.8961L92.7056 81.6653L84.647 85.9462C69.5882 93.9569 65.5377 113.553 65.3825 131.715C148.919 110.727 100.962 56.9619 100.962 56.9619C106.29 47.3618 119.076 -0.639144 62.6022 0.434607C6.14228 1.50129 18.9289 64.4217 18.9289 64.4217C-27.179 95.8077 26.6276 123.98 41.9475 130.994C41.8981 115.213 39.3436 104.052 39.2942 103.868Z" fill="black"/>
<path d="M121.32 108.827C115.732 119.84 105.104 128.741 89.5515 135.459C101.886 142.968 113.678 151.509 122.202 160.685C155.742 196.74 89.9043 257.98 89.9043 257.98H216.606C216.606 257.98 266.291 202.957 218.793 148.365C198.421 124.947 159.052 113.885 121.32 108.827Z" fill="black"/>
<path d="M82.8547 82.5555C82.8547 82.5555 66.0882 77.2291 57.4227 88.9485C57.4227 88.9485 54.0073 57.4565 57.4227 28.1615C57.4227 28.1615 47.1624 42.5653 47.6917 79.8852C47.6917 79.8852 40.7691 74.022 26.9241 80.4221C26.9241 80.4221 40.8961 90.9053 43.0272 102.964C43.0272 102.964 50.8883 135.876 40.2328 170.003H65.806C65.813 170.017 48.7713 100.682 82.8547 82.5555Z" fill="black"/>
<path d="M347.379 100.364C353.588 89.1745 368.499 33.2194 302.661 34.4556C236.83 35.706 251.74 109.067 251.74 109.067C197.99 145.659 260.716 178.508 278.577 186.681C278.527 168.279 275.535 155.267 275.486 155.048C273.651 144.685 262.516 134.413 258.374 131.305L252.368 126.805L259.178 123.662C264.774 121.076 270.144 119.762 275.133 119.762C277.292 119.762 279.184 120.01 280.807 120.377C281.858 66.7882 302.04 53.7407 302.04 53.7407C302.04 53.7407 296.889 85.7625 300.318 128.345C304.728 125.689 310.049 124.319 316.104 124.319C322.455 124.319 327.415 125.873 327.62 125.943L337.76 129.165L328.361 134.166C310.804 143.505 306.09 166.357 305.9 187.529C403.288 163.058 347.379 100.364 347.379 100.364Z" fill="black"/>
<path d="M326.258 130.203C326.258 130.203 306.711 123.994 296.613 137.663C296.613 137.663 292.626 100.95 296.613 66.7811C296.613 66.7811 284.645 83.5726 285.266 127.095C285.266 127.095 277.194 120.257 261.048 127.717C261.048 127.717 277.349 139.945 279.826 154.002C279.826 154.002 288.992 192.382 276.58 232.174H306.387C306.387 232.174 286.522 151.339 326.258 130.203Z" fill="black"/>
</svg>
