<svg width="204" height="205" viewBox="0 0 204 205" fill="none" xmlns="http://www.w3.org/2000/svg">
<path d="M199.75 0H4.25C1.91255 0 0 1.91405 0 4.25333V55.2933C0 57.6326 1.91255 59.5467 4.25 59.5467H199.75C202.087 59.5467 204 57.6326 204 55.2933V4.25333C204 1.91405 202.087 0 199.75 0Z" fill="black"/>
<path d="M199.75 144.613H4.25C1.91255 144.613 0 146.527 0 148.867V199.907C0 202.246 1.91255 204.16 4.25 204.16H199.75C202.087 204.16 204 202.246 204 199.907V148.867C204 146.527 202.087 144.613 199.75 144.613Z" fill="black"/>
<path d="M199.75 72.3066H4.25C1.91255 72.3066 0 74.2207 0 76.56V127.6C0 129.939 1.91255 131.853 4.25 131.853H199.75C202.087 131.853 204 129.939 204 127.6V76.56C204 74.2207 202.087 72.3066 199.75 72.3066Z" fill="black"/>
</svg>
