<svg width="331" height="208" viewBox="0 0 331 208" fill="none" xmlns="http://www.w3.org/2000/svg">
<path fill-rule="evenodd" clip-rule="evenodd" d="M249.946 88.407C232.539 84.0448 237.429 106.34 239.078 116.325C261.227 129.593 262.644 99.4514 249.946 88.407Z" fill="black"/>
<path fill-rule="evenodd" clip-rule="evenodd" d="M329.13 10.857C302.175 4.67239 272.211 5.51897 245.295 6.20399C244.189 3.79994 233.716 -0.0840155 240.638 3.102C233.056 6.17815 212.815 3.83872 209.588 6.20399C208.837 1.31834 216.703 5.04075 217.344 1.551C215.028 1.28604 211.612 2.10031 211.134 0C210.616 0 210.105 0 209.588 0C213.533 5.12476 205.583 5.28632 203.378 1.551C203.378 1.034 203.378 0.517 203.378 0C200.273 0 197.167 0 194.062 0C200.932 4.56899 179.961 5.27986 189.405 3.102C189.314 2.15847 189.172 1.26665 187.853 1.551C187.853 1.034 187.853 0.517 187.853 0C187.335 0 186.818 0 186.3 0C182.496 5.50605 173.589 -0.536393 169.222 6.20399C170.781 1.02753 167.068 1.11801 163.013 1.551C163.013 1.034 163.013 0.517 163.013 0C154.215 0 145.417 0 136.62 0C123.463 5.0149 102.426 -0.374831 90.045 6.20399C91.2094 3.27648 94.6766 5.12476 91.5975 1.551C70.9881 6.22339 13.2609 -4.63361 0 10.857C0 36.707 0 62.557 0 88.407C3.15028 96.8987 1.42313 106.528 3.105 113.223C2.07 113.223 1.035 113.223 0 113.223C0 116.325 0 119.427 0 122.529C4.24997 127.434 1.68834 143.726 0 151.998C0 152.515 0 153.032 0 153.549C4.54106 168.807 1.41019 181.293 1.5525 198.528C11.0098 214.626 38.1203 200.279 52.785 207.828C53.3025 207.828 53.82 207.828 54.3375 207.828C90.349 205.023 134.666 202.658 170.775 204.732C209.277 206.936 252.475 203.271 294.975 203.181C306.114 203.155 320.753 207.259 329.13 198.528C329.13 196.977 329.13 195.426 329.13 193.875C329.648 193.875 330.165 193.875 330.683 193.875C330.683 192.841 330.683 191.807 330.683 190.773C327.06 133.903 330.165 70.3055 329.13 10.857ZM316.71 189.216C288.28 190.295 267.25 184.259 240.638 187.665C235.65 189.028 237.416 183.645 234.428 183.012C232.558 188.763 212.084 184.569 206.483 186.114C212.447 182.527 201.359 183.108 194.062 181.454C193.099 183.05 193.118 186.792 186.3 186.114C194.341 180.375 173.783 181.59 172.327 187.658C166.9 177.169 155.179 186.45 145.935 181.454C126.063 185.732 117.731 178.972 99.36 187.658C99.7481 185.978 102.452 186.611 102.465 184.563C75.8138 181.008 45.2036 186.03 24.84 183.012C20.6353 123.376 23.2228 83.0754 23.2875 26.3605C106.644 22.5671 208.203 21.2745 313.605 21.7075C320.048 78.2996 314.22 131.034 316.71 189.216Z" fill="black"/>
<path fill-rule="evenodd" clip-rule="evenodd" d="M237.526 38.7685C236.472 48.1973 237.287 55.2932 239.078 65.1355C246.433 69.2909 249.83 66.2471 254.604 66.6865C253.737 66.6865 252.844 67.9403 254.604 68.2375C262.838 60.321 256.027 45.5283 251.499 37.2175C243.742 36.0608 243.904 36.6424 237.526 38.7685Z" fill="black"/>
<path fill-rule="evenodd" clip-rule="evenodd" d="M239.085 141.141C236.239 147.216 237.086 161.272 239.085 167.508C260.632 182.65 262.573 152.98 251.505 141.141C245.91 140.592 244.021 138.769 239.085 141.141Z" fill="black"/>
<path fill-rule="evenodd" clip-rule="evenodd" d="M158.355 94.6046C144.072 76.8133 135.908 52.9214 110.228 46.5236C104.367 67.1325 132.875 78.1187 138.173 97.7066C115.849 95.2573 75.568 106.651 63.6525 85.2986C61.3561 86.1064 59.7454 87.5927 57.4425 88.4006C55.5343 99.096 64.17 99.2576 66.7575 105.462C63.8013 111.304 55.7995 112.086 57.4425 122.529C70.9428 129.948 76.9846 109.636 96.255 113.223C96.255 114.774 96.255 116.325 96.255 117.876C108.643 110.838 117.227 117.411 127.305 120.978C121.373 124.39 117.408 134.394 117.99 139.59C115.545 139.454 116.774 135.635 113.333 136.488C114.316 145.232 106.016 144.695 104.018 150.447C102.698 164.813 109.678 169.673 119.543 169.059C136.245 153.691 145.825 131.215 161.46 114.78C174.999 120.804 197.51 113.197 189.405 97.7195C181.429 94.2944 172.528 94.6046 158.355 94.6046Z" fill="black"/>
</svg>
